<?xml version="1.0" encoding="UTF-8"?>
<!DOCTYPE svg PUBLIC "-//W3C//DTD SVG 1.0//EN" "http://www.w3.org/TR/2001/REC-SVG-20010904/DTD/svg10.dtd">
<!-- Creator: CorelDRAW 2021 (64-Bit) -->
<svg xmlns="http://www.w3.org/2000/svg" xml:space="preserve" width="200px" height="171px" version="1.0" shape-rendering="geometricPrecision" text-rendering="geometricPrecision" image-rendering="optimizeQuality" fill-rule="evenodd" clip-rule="evenodd"
viewBox="0 0 200 171.44"
 xmlns:xlink="http://www.w3.org/1999/xlink"
 xmlns:xodm="http://www.corel.com/coreldraw/odm/2003">
 <g id="Capa_x0020_1">
  <metadata id="CorelCorpID_0Corel-Layer"/>
  <g id="_1320106413472">
   <path fill="#F0908B" d="M169.26 45.05c-2.05,6.73 -11.55,17.09 -24.51,14.63 -4.64,-0.87 -12.64,-3.12 -12.48,-7.6 0.25,-7.04 8.64,-0.26 13.34,0.62 12.43,2.33 20.15,-12.42 20.03,-19.91 -0.33,-20.27 -24.92,-12.28 -24.93,-12.28 -4.65,-6.71 -7.19,-15.07 -18.41,-12.6 -10.53,2.31 -11.63,11.42 -11.59,20.82 0.11,21.66 0.01,43.36 0.01,65.02 0,13.15 -2.42,53.3 3.24,61.72 7.72,11.49 29.76,16.39 36.66,-9.44 10.97,-0.92 14.46,3.89 23.65,-4.9 5.56,-5.31 7.83,-13.03 4.41,-21.65 -22.24,1.04 -22.36,-5.51 -32.87,-1.73 -5.33,1.92 -8.27,4.05 -10.5,7.77 -2.61,4.35 -3.21,9.8 -9,8.52 -4.13,-2.88 3.24,-13.22 5.1,-15.44 4.01,-4.79 8.44,-5.13 13.53,-8.59 -10.15,-12.97 -12.42,-33.48 -2.09,-31.16 2.71,4.92 -3.33,26.22 17.62,32.07 8.03,2.24 19.09,3.67 25.78,-2.52 0.15,-0.15 0.37,-0.35 0.52,-0.49 1.95,-1.9 6.02,-6.04 5.97,-14.15 -0.09,-14.26 -12.9,-17.63 -13.77,-19.42 -0.6,-7.75 7.25,-7.12 4.4,-18.81 -1.61,-6.61 -6.82,-9.81 -14.11,-10.48z"/>
   <path fill="#F0908B" d="M42.69 19.79c-12.82,5.51 -10.56,26.19 5.79,33.52 15,6.73 23.38,-6.19 26.03,-8.03 5.95,-4.16 7.98,2.65 2.96,8.2 -2.98,3.29 -8.06,5.05 -10.92,8.12 4.44,1.6 16.15,12.72 13.21,20.57 -8.44,3.38 -4.2,-2.58 -11.33,-10.24l-5.87 -5.22c-10.49,-7.26 -26.94,-5.96 -31.91,-21.66 -7.29,0.68 -12.5,3.92 -14.07,10.47 -2.81,11.7 4.99,11.16 4.41,18.82 -0.8,1.64 -14.46,5.72 -13.77,20.37 0.7,14.57 14.01,17.65 14.69,18.7 1.53,6.83 -7.11,14.68 1.78,25.68 5.01,6.19 13.86,10.01 24.4,5.87 7.05,-2.78 14.64,-9.31 15.49,-17.86 0.92,-9.26 -4.09,-18.69 -10.92,-22.04 -4.6,-2.26 -12.26,-1.31 -14.19,-3.27 -4.87,-4.94 3.93,-6.06 7.89,-5.7 21.24,1.93 28.59,25.37 22.16,39.85 -3.44,7.74 -10.35,12.16 -17.56,15.5 4.69,16.49 31.58,17.08 36.99,-0.1 2.6,-8.25 1.23,-107.54 1.31,-124.66 0.05,-8.78 -2.38,-17.56 -12.39,-18.97 -10.91,-1.54 -12.96,6.07 -17.62,12.8 -6.05,-0.3 -9.81,-3.62 -16.56,-0.72z"/>
   <path fill="#2A3C4F" d="M59.25 20.51c4.66,-6.73 6.71,-14.34 17.62,-12.8 10.01,1.41 12.44,10.19 12.39,18.97 -0.08,17.12 1.29,116.41 -1.31,124.66 -5.41,17.18 -32.3,16.59 -36.99,0.1 7.21,-3.34 14.12,-7.76 17.56,-15.5 6.43,-14.48 -0.92,-37.92 -22.16,-39.85 -3.96,-0.36 -12.76,0.76 -7.89,5.7 1.93,1.96 9.59,1.01 14.19,3.27 6.83,3.35 11.84,12.78 10.92,22.04 -0.85,8.55 -8.44,15.08 -15.49,17.86 -10.54,4.14 -19.39,0.32 -24.4,-5.87 -8.89,-11 -0.25,-18.85 -1.78,-25.68 -0.68,-1.05 -13.99,-4.13 -14.69,-18.7 -0.69,-14.65 12.97,-18.73 13.77,-20.37 0.58,-7.66 -7.22,-7.12 -4.41,-18.82 1.57,-6.55 6.78,-9.79 14.07,-10.47 4.97,15.7 21.42,14.4 31.91,21.66l5.87 5.22c7.13,7.66 2.89,13.62 11.33,10.24 2.94,-7.85 -8.77,-18.97 -13.21,-20.57 2.86,-3.07 7.94,-4.83 10.92,-8.12 5.02,-5.55 2.99,-12.36 -2.96,-8.2 -2.65,1.84 -11.03,14.76 -26.03,8.03 -16.35,-7.33 -18.61,-28.01 -5.79,-33.52 6.75,-2.9 10.51,0.42 16.56,0.72zm-31.7 17.68c-16.24,2.48 -21.82,17.71 -15.36,33.71 -6.27,3.57 -12.93,11.99 -12.12,23.83 0.96,14.07 9.72,18.4 13.89,22.41 -2.56,10.55 -1.61,19.65 5.2,26.45 7.54,7.54 10.74,8.91 24.44,9.26 1.45,2.12 2.63,4.83 3.66,6.28 3.99,5.61 9.4,9.69 16.48,11.04 5.12,0.98 10.81,0.57 15.37,-1.19 24.09,-9.34 17.31,-43.25 17.31,-75.21 0,-23.1 1.52,-51.75 -0.07,-74.16 -0.74,-10.42 -8.22,-18.11 -17.67,-19.87 -15.42,-2.88 -19.03,8.71 -24.41,11.53 -7.54,-2.91 -16.1,1.25 -20.14,4.94 -4.89,4.48 -7.59,11.54 -6.58,20.98z"/>
   <path fill="#2A3C4F" d="M169.26 45.05c7.29,0.67 12.5,3.87 14.11,10.48 2.85,11.69 -5,11.06 -4.4,18.81 0.87,1.79 13.68,5.16 13.77,19.42 0.05,8.11 -4.02,12.25 -5.97,14.15 -0.15,0.14 -0.37,0.34 -0.52,0.49 -6.69,6.19 -17.75,4.76 -25.78,2.52 -20.95,-5.85 -14.91,-27.15 -17.62,-32.07 -10.33,-2.32 -8.06,18.19 2.09,31.16 -5.09,3.46 -9.52,3.8 -13.53,8.59 -1.86,2.22 -9.23,12.56 -5.1,15.44 5.79,1.28 6.39,-4.17 9,-8.52 2.23,-3.72 5.17,-5.85 10.5,-7.77 10.51,-3.78 10.63,2.77 32.87,1.73 3.42,8.62 1.15,16.34 -4.41,21.65 -9.19,8.79 -12.68,3.98 -23.65,4.9 -6.9,25.83 -28.94,20.93 -36.66,9.44 -5.66,-8.42 -3.24,-48.57 -3.24,-61.72 0,-21.66 0.1,-43.36 -0.01,-65.02 -0.04,-9.4 1.06,-18.51 11.59,-20.82 11.22,-2.47 13.76,5.89 18.41,12.6 0.01,0 24.6,-7.99 24.93,12.28 0.12,7.49 -7.6,22.24 -20.03,19.91 -4.7,-0.88 -13.09,-7.66 -13.34,-0.62 -0.16,4.48 7.84,6.73 12.48,7.6 12.96,2.46 22.46,-7.9 24.51,-14.63zm-12.89 108.79c13.6,-0.27 17.01,-1.77 24.43,-9.25 6.71,-6.76 7.84,-15.97 5.18,-26.45 3.12,-3.17 13.17,-8.25 13.97,-22.5 0.7,-12.57 -5.79,-18.65 -11.89,-24.24 5.73,-16.15 1,-30.67 -15.64,-33.21 1.95,-19.16 -9.89,-28.41 -28.33,-25.92 -3.85,-6.63 -11.5,-14.15 -23.63,-11.36 -9.01,2.07 -16.15,9.42 -16.86,19.69 -1.54,22.56 -0.05,50.97 -0.05,74.17 0,31.98 -6.78,65.88 17.3,75.21 8.68,3.36 20.51,1.95 27.47,-5.01 4.5,-4.49 4.18,-5.44 8.05,-11.13z"/>
  </g>
 </g>
</svg>
